<?xml version="1.0" standalone="no"?><!-- Generator: Gravit.io -->
<svg xmlns="http://www.w3.org/2000/svg" xmlns:xlink="http://www.w3.org/1999/xlink" style="isolation:isolate"
     viewBox="733.696 493.088 103.504 35.424" width="103.504" height="35.424">
    <path d=" M 747.136 528.512 C 754.432 528.512 759.616 524.672 759.616 518.192 C 759.616 511.088 753.904 509.312 748.816 507.776 C 743.584 506.192 742.768 505.136 742.768 503.6 C 742.768 502.256 743.968 501.056 746.368 501.056 C 749.44 501.056 751.024 502.544 752.176 504.944 L 758.656 501.152 C 756.208 496.208 751.888 493.568 746.368 493.568 C 740.56 493.568 735.088 497.312 735.088 503.792 C 735.088 510.224 739.984 512.624 744.976 514.016 C 750.016 515.408 751.936 516.224 751.936 518.288 C 751.936 519.584 751.024 521.024 747.376 521.024 C 743.584 521.024 741.52 519.152 740.32 516.368 L 733.696 520.208 C 735.568 525.152 740.08 528.512 747.136 528.512 Z  M 775.28 510.752 L 775.28 503.84 L 770.336 503.84 L 770.336 497.12 L 763.136 499.28 L 763.136 503.84 L 759.296 503.84 L 759.296 510.752 L 763.136 510.752 L 763.136 519.248 C 763.136 525.968 765.872 528.8 775.28 527.84 L 775.28 521.312 C 772.112 521.504 770.336 521.312 770.336 519.248 L 770.336 510.752 L 775.28 510.752 Z  M 784.272 518.72 L 801.312 518.72 C 801.504 517.808 801.6 516.848 801.6 515.84 C 801.6 508.592 796.416 503.168 789.408 503.168 C 781.824 503.168 776.64 508.688 776.64 515.84 C 776.64 522.992 781.728 528.512 789.936 528.512 C 794.496 528.512 798.048 526.832 800.4 523.568 L 794.64 520.256 C 793.68 521.312 792 522.08 790.032 522.08 C 787.392 522.08 785.184 521.216 784.272 518.72 Z  M 784.128 513.344 C 784.8 510.896 786.624 509.552 789.36 509.552 C 791.52 509.552 793.68 510.56 794.448 513.344 L 784.128 513.344 Z  M 807.28 501.728 C 809.632 501.728 811.6 499.76 811.6 497.408 C 811.6 495.056 809.632 493.088 807.28 493.088 C 804.928 493.088 802.96 495.056 802.96 497.408 C 802.96 499.76 804.928 501.728 807.28 501.728 Z  M 803.68 527.84 L 810.88 527.84 L 810.88 503.84 L 803.68 503.84 L 803.68 527.84 Z  M 828.224 503.168 C 825.056 503.168 822.656 504.32 821.36 506.096 L 821.36 503.84 L 814.16 503.84 L 814.16 527.84 L 821.36 527.84 L 821.36 514.736 C 821.36 511.328 823.184 509.792 825.824 509.792 C 828.128 509.792 830 511.184 830 514.16 L 830 527.84 L 837.2 527.84 L 837.2 513.104 C 837.2 506.624 833.072 503.168 828.224 503.168 Z "
          fill-rule="evenodd" fill="rgb(0,0,0)"/>
</svg>